<svg width="219" height="54" viewBox="0 0 219 54" fill="none" xmlns="http://www.w3.org/2000/svg">
<g filter="url(#filter0_d_0_1816)">
<rect x="4" width="46" height="46" fill="#151515"/>
<path d="M34.1245 16.7158C33.509 16.4736 32.9186 16.3525 32.3535 16.3525C30.8197 16.3525 30.0527 17.1851 30.0527 18.8501V20.5H33.5947V24.0269H30.0527V36H25.2847V24.0269H22.6812V20.5H25.2847V18.5776C25.2847 16.8117 25.8599 15.3888 27.0103 14.3091C28.1606 13.2293 29.7248 12.6895 31.7026 12.6895C32.6714 12.6895 33.4787 12.7904 34.1245 12.9922V16.7158Z" fill="white"/>
<rect x="59" width="46" height="46" fill="#151515"/>
<path fill-rule="evenodd" clip-rule="evenodd" d="M91.5341 17.8628C92.5043 17.1685 93.34 16.3032 94 15.3091C93.0972 15.7026 92.1423 15.9644 91.165 16.0859C92.1952 15.4746 92.9656 14.5068 93.33 13.3662C92.3654 13.938 91.3102 14.3408 90.21 14.5571C88.8295 13.084 86.689 12.6035 84.8113 13.3457C82.9337 14.0879 81.7001 15.9019 81.7 17.9209C81.6962 18.2983 81.7344 18.6743 81.814 19.043C77.8546 18.8486 74.1656 16.9766 71.671 13.896C70.3557 16.1426 71.0186 19.0254 73.183 20.4722C72.4042 20.4512 71.6417 20.2432 70.96 19.8662V19.9199C70.9625 22.2617 72.6075 24.2803 74.9003 24.7549C74.4792 24.8662 74.0454 24.9209 73.61 24.917C73.2976 24.9224 72.9854 24.8945 72.679 24.833C73.3313 26.835 75.1743 28.208 77.2791 28.2612C75.5376 29.623 73.3899 30.3623 71.179 30.3608C70.7849 30.3628 70.3911 30.3398 70 30.292C72.25 31.7417 74.8716 32.5083 77.548 32.5C81.38 32.5269 85.0532 30.9712 87.7007 28.2007C90.348 25.4302 91.735 21.6899 91.5341 17.8628Z" fill="white"/>
<rect x="115" width="46" height="46" fill="#151515"/>
<path fill-rule="evenodd" clip-rule="evenodd" d="M149.483 34.6396H149.489V25.874C149.489 21.585 148.566 18.2817 143.552 18.2817C141.633 18.2095 139.831 19.2002 138.864 20.8589H138.794V18.6826H134.04V34.6387H138.99V26.7388C138.99 24.6577 139.384 22.647 141.961 22.647C144.5 22.647 144.538 25.021 144.538 26.873V34.6416L149.483 34.6396Z" fill="white"/>
<path fill-rule="evenodd" clip-rule="evenodd" d="M125.987 18.6787H130.943V34.6367H125.987V18.6787Z" fill="white"/>
<path fill-rule="evenodd" clip-rule="evenodd" d="M128.461 10.7378C127.292 10.7319 126.235 11.4326 125.785 12.5117C125.335 13.5908 125.581 14.8345 126.408 15.6611C127.234 16.4878 128.478 16.7334 129.557 16.2837C130.636 15.8335 131.337 14.7769 131.331 13.6079C131.33 12.0229 130.046 10.7383 128.461 10.7378Z" fill="white"/>
<rect x="169" width="46" height="46" fill="#151515"/>
<path fill-rule="evenodd" clip-rule="evenodd" d="M205.036 17.6758C205.015 16.5938 204.81 15.5225 204.429 14.5088C203.75 12.7554 202.363 11.3687 200.609 10.689C199.595 10.3091 198.524 10.1035 197.442 10.082C196.045 10.0151 195.601 10 192.052 10C188.503 10 188.068 10.0151 186.676 10.0771C185.594 10.0977 184.523 10.3027 183.509 10.6831C182.636 11.0107 181.845 11.5264 181.193 12.1929C180.532 12.8457 180.02 13.6338 179.693 14.5029C179.312 15.5166 179.105 16.5874 179.082 17.6699C179.016 19.0679 179.001 19.5122 179.001 23.0562C179.001 26.6001 179.016 27.0439 179.077 28.436C179.099 29.5176 179.304 30.5874 179.684 31.6001C180.363 33.354 181.75 34.7407 183.504 35.4199C184.518 35.8003 185.589 36.0054 186.671 36.0269C188.063 36.0879 188.507 36.104 192.051 36.104C195.595 36.104 196.039 36.0889 197.431 36.0269C198.513 36.0059 199.584 35.8008 200.598 35.4199C202.353 34.7417 203.74 33.3545 204.418 31.6001C204.798 30.5864 205.003 29.5156 205.025 28.4331C205.086 27.041 205.102 26.5972 205.102 23.0532C205.102 19.5088 205.097 19.0649 205.036 17.6729V17.6758ZM202.685 28.334C202.677 29.1611 202.525 29.9805 202.236 30.7559C201.796 31.895 200.896 32.7949 199.757 33.2349C198.982 33.5229 198.162 33.6748 197.335 33.6841C195.958 33.7451 195.545 33.7598 192.062 33.7598C188.579 33.7598 188.162 33.7451 186.789 33.6841C185.962 33.6753 185.142 33.5234 184.367 33.2349C183.8 33.0273 183.287 32.6943 182.867 32.2612C182.435 31.8398 182.102 31.3271 181.893 30.7612C181.605 29.9854 181.453 29.166 181.444 28.3389C181.383 26.9619 181.368 26.5488 181.368 23.0659C181.368 19.583 181.383 19.166 181.444 17.793C181.452 16.9653 181.604 16.1455 181.892 15.3701C182.1 14.8018 182.435 14.2891 182.871 13.8701C183.292 13.4375 183.805 13.105 184.371 12.896C185.146 12.6079 185.966 12.4561 186.793 12.4468C188.17 12.3862 188.583 12.3711 192.066 12.3711C195.549 12.3711 195.966 12.3862 197.339 12.4468C198.166 12.4556 198.986 12.6074 199.761 12.896C200.328 13.1035 200.841 13.4365 201.261 13.8701C201.693 14.2915 202.026 14.8037 202.235 15.3701C202.523 16.1455 202.675 16.9648 202.684 17.792C202.745 19.1689 202.76 19.582 202.76 23.0649C202.76 26.5479 202.745 26.9561 202.684 28.333L202.685 28.334Z" fill="white"/>
<path fill-rule="evenodd" clip-rule="evenodd" d="M192.056 16.3501C189.344 16.3501 186.898 17.9839 185.86 20.4897C184.823 22.9956 185.396 25.8799 187.314 27.7979C189.232 29.7158 192.116 30.2895 194.622 29.2515C197.128 28.2139 198.762 25.7686 198.762 23.0562C198.76 19.3516 195.758 16.3506 192.055 16.3501H192.056ZM192.056 27.4072C189.654 27.4072 187.706 25.4595 187.706 23.0571C187.706 20.6548 189.654 18.707 192.056 18.707C194.458 18.707 196.406 20.6548 196.406 23.0571C196.405 25.4604 194.457 27.4072 192.055 27.4072H192.056Z" fill="white"/>
<path fill-rule="evenodd" clip-rule="evenodd" d="M200.593 16.084C200.593 16.9487 199.892 17.6499 199.027 17.6499C198.162 17.6499 197.461 16.9487 197.461 16.084C197.461 15.2192 198.162 14.5181 199.027 14.5181C199.892 14.5181 200.593 15.2192 200.593 16.084Z" fill="white"/>
</g>
<defs>
<filter id="filter0_d_0_1816" x="0" y="0" width="219" height="54" filterUnits="userSpaceOnUse" color-interpolation-filters="sRGB">
<feFlood flood-opacity="0" result="BackgroundImageFix"/>
<feColorMatrix in="SourceAlpha" type="matrix" values="0 0 0 0 0 0 0 0 0 0 0 0 0 0 0 0 0 0 127 0" result="hardAlpha"/>
<feOffset dy="4"/>
<feGaussianBlur stdDeviation="2"/>
<feComposite in2="hardAlpha" operator="out"/>
<feColorMatrix type="matrix" values="0 0 0 0 0 0 0 0 0 0 0 0 0 0 0 0 0 0 0.25 0"/>
<feBlend mode="normal" in2="BackgroundImageFix" result="effect1_dropShadow_0_1816"/>
<feBlend mode="normal" in="SourceGraphic" in2="effect1_dropShadow_0_1816" result="shape"/>
</filter>
</defs>
</svg>
